<?xml version="1.0" standalone="no"?>
<!DOCTYPE svg PUBLIC "-//W3C//DTD SVG 20010904//EN"
 "http://www.w3.org/TR/2001/REC-SVG-20010904/DTD/svg10.dtd">
<svg version="1.0" xmlns="http://www.w3.org/2000/svg"
 width="512.000000pt" height="512.000000pt" viewBox="0 0 512.000000 512.000000"
 preserveAspectRatio="xMidYMid meet">
<metadata>
Created by potrace 1.14, written by Peter Selinger 2001-2017
</metadata>
<g transform="translate(0.000000,512.000000) scale(0.100000,-0.100000)"
fill="#000000" stroke="none">
<path d="M2288 5079 c-385 -22 -786 -98 -1074 -204 -133 -49 -341 -152 -439
-217 -163 -108 -296 -270 -331 -401 -75 -281 115 -552 535 -762 757 -378 2120
-415 2975 -81 395 154 637 351 717 583 23 69 25 196 4 267 -40 131 -173 290
-330 394 -98 66 -307 169 -439 217 -436 160 -1045 237 -1618 204z"/>
<path d="M434 3459 l1 -426 44 -88 c36 -73 61 -106 135 -181 105 -105 203
-172 371 -254 306 -150 656 -240 1130 -292 160 -17 730 -17 890 0 474 52 824
142 1130 292 168 82 266 149 371 254 74 75 99 108 135 181 l44 88 1 426 c1
272 -1 402 -7 361 -18 -144 -140 -314 -313 -437 -141 -100 -361 -205 -566
-271 -765 -244 -1802 -235 -2550 23 -147 51 -389 171 -494 246 -175 125 -296
294 -315 439 -6 41 -8 -89 -7 -361z"/>
<path d="M431 2494 c-1 -450 0 -456 71 -577 193 -329 800 -594 1553 -676 282
-32 728 -32 1010 0 753 82 1360 347 1553 676 71 121 72 127 71 577 -1 222 -5
378 -9 350 -19 -130 -65 -213 -188 -337 -221 -226 -672 -413 -1207 -501 -252
-42 -375 -50 -725 -50 -349 0 -470 8 -725 50 -495 81 -943 259 -1171 465 -135
122 -204 237 -224 373 -4 28 -8 -128 -9 -350z"/>
<path d="M434 1489 l1 -426 44 -88 c120 -243 454 -458 912 -590 378 -109 693
-149 1169 -149 476 0 791 40 1169 149 343 99 601 235 777 410 74 74 99 107
135 180 l44 88 1 426 c1 272 -1 402 -7 361 -13 -105 -75 -215 -178 -319 -95
-95 -183 -158 -335 -237 -837 -437 -2375 -437 -3212 0 -152 79 -240 142 -335
237 -103 104 -165 214 -178 319 -6 41 -8 -89 -7 -361z"/>
</g>
</svg>
